<svg width="252" height="240" viewBox="0 0 252 240" fill="none" xmlns="http://www.w3.org/2000/svg">
<path d="M153.9 117.7C172.5 99.5 190.8 81.6 209 63.7C219.6 53.3 233.8 54.1 243.4 64.1C251.8 72.8 255.1 74 243.6 84.8C227.6 99.9 212.3 115.6 196.6 131C187.6 139.9 176 139.9 167 131C162.7 126.7 158.5 122.3 153.9 117.7Z" fill="url(#paint0_linear_524_866)"/>
<path d="M181.8 146.2C174.1 153.5 166.8 161.2 158.7 168C151.8 173.8 141.9 173 135.4 166.7C116.9 148.7 98.5 130.6 80.4 112.3C78.9 110.8 78 106.6 78.9 105.4C85.9 97.2 93.6 89.2 105.7 91.3C110.2 92.1 115.1 94.3 118.4 97.3C132.8 110.6 146.6 124.5 160.6 138.1C166.3 143.7 173.3 145.7 181.3 144.9C181.4 145.4 181.6 145.8 181.8 146.2Z" fill="url(#paint1_linear_524_866)"/>
<g clip-path="url(#clip0_524_866)">
<path d="M35.5 123.7C23.7 123.4 11.9 123.1 0.1 122.8C0 117.8 0 112.8 0 107.8C14.1 108.1 28.2 108.4 42.4 108.7C45.4 108.7 46.4 110 46.4 112.9C46.5 124.1 46.5 124.1 35.5 123.7ZM116.9 194C115.6 194.1 113.5 195.9 113.5 197C113.2 211.1 113.3 225.2 113.3 239.4C118.9 239.4 123.8 239.4 129.1 239.4C129.1 224.1 129.1 209.3 129.1 193.9C124.8 193.9 120.8 193.6 116.9 194ZM157.6 52.4C163.5 37.9 169.2 23.9 175.1 9.4C170.2 7.5 165.8 5.8 160.4 3.7C154.9 17.5 149.4 30.8 144.1 44.2C143.8 45.1 144.8 47.2 145.7 47.6C149.4 49.4 153.3 50.7 157.6 52.4ZM83 4.1C86.8 18.4 90.4 31.8 94.2 45.2C94.5 46.5 96.6 48.4 97.5 48.2C101.6 47.4 105.6 45.9 110 44.6C106 29.5 102 14.9 98 0C92.7 1.4 88 2.7 83 4.1ZM69.9 174.5C60.4 187 51.2 199 41.9 211.1C46.1 214.2 49.9 217 54.1 220.1C63.7 207.6 73 195.6 82.4 183.3C78.1 180.2 74.3 177.6 69.9 174.5ZM75.3 231.2C79.5 232.6 83 233.6 86.4 235C89.4 236.2 90.4 235.1 91.3 232.3C95.7 219.2 100.2 206.1 104.9 192.4C100.1 190.8 95.5 189.3 90.3 187.6C85.3 202.3 80.3 216.7 75.3 231.2ZM67.1 66.4C54.6 56.6 42.6 47.2 30.5 37.7C27.2 41.7 24.2 45.4 20.9 49.5C33.2 59.2 45.2 68.6 57.6 78.3C60.8 74.3 63.8 70.5 67.1 66.4ZM120.3 21.6C120 25.4 119.6 29 119.4 32.7C119.3 36.3 119.4 39.9 119.4 44.1C124.2 44.1 129 44.1 134.3 44.1C134.6 40.8 135.1 37.2 135.3 33.6C135.9 20.2 134.8 19.4 120.3 21.6ZM207.4 31.3C203.4 27.9 199.6 24.8 195.4 21.3C190.3 27.3 185.5 33.1 180.3 39C184.5 42.5 188.3 45.6 192.3 48.9C197.5 42.9 202.3 37.2 207.4 31.3ZM46.8 132.8C39.2 135 31.8 137.2 24.3 139.4C26 144.6 27.3 149 28.9 153.9C36.4 151.7 43.7 149.6 51.1 147.3C49.6 142.2 48.2 137.6 46.8 132.8ZM27.3 89.4C27 90.6 28 92.9 29 93.3C34.3 95.5 39.7 97.5 45.2 99.3C46.1 99.6 48.2 98.8 48.6 97.9C50.3 94.2 51.5 90.3 53.1 86.1C49 84.5 45.4 83.1 41.8 81.7C31.1 77.7 30.1 78.1 27.3 89.4ZM61.3 169.6C62.1 169 62.7 166.8 62.3 166.1C60.1 162.5 57.5 159.1 55 155.5C48.4 160.1 42.3 164.2 36 168.6C39 172.9 41.7 176.6 44.7 180.8C50.6 176.8 56 173.3 61.3 169.6ZM175 203C179.8 209.3 184.2 215 188.8 221.1C193 218.1 196.8 215.3 201.2 212.2C196.3 205.7 191.9 199.8 187.3 193.8C183 197 179.1 199.9 175 203ZM71.3 34.4C72.1 33.7 73 31.6 72.6 30.9C68.9 25.1 64.9 19.5 60.9 13.5C56.5 16.4 52.5 19.1 48.2 22C52.5 28.5 56.5 34.5 60.8 40.9C64.8 38.5 68.2 36.6 71.3 34.4ZM160.1 210.1C155 211.8 150.5 213.3 145.6 214.9C148 222.3 150.3 229.3 152.7 236.6C156.9 235.2 160.8 234.2 164.4 232.7C165.5 232.3 166.8 230.1 166.5 229.2C164.6 222.9 162.4 216.8 160.1 210.1Z" fill="url(#paint2_linear_524_866)"/>
</g>
<defs>
<linearGradient id="paint0_linear_524_866" x1="154" y1="117" x2="238.546" y2="41.9674" gradientUnits="userSpaceOnUse">
<stop stop-color="#31A74A"/>
<stop offset="0.753125" stop-color="#8AC24A"/>
</linearGradient>
<linearGradient id="paint1_linear_524_866" x1="182" y1="147" x2="69.9602" y2="133.798" gradientUnits="userSpaceOnUse">
<stop stop-color="#31A74A"/>
<stop offset="0.711458" stop-color="#8AC24A"/>
</linearGradient>
<linearGradient id="paint2_linear_524_866" x1="193" y1="19" x2="1.281" y2="165.129" gradientUnits="userSpaceOnUse">
<stop stop-color="#31A74A"/>
<stop offset="1" stop-color="#8AC24A"/>
</linearGradient>
<clipPath id="clip0_524_866">
<rect width="207.4" height="239.4" fill="white"/>
</clipPath>
</defs>
</svg>
