<svg width="512" height="252" viewBox="0 0 512 252" fill="none" xmlns="http://www.w3.org/2000/svg">
<path d="M153.9 123.7C172.5 105.5 190.8 87.6 209 69.7C219.6 59.3 233.8 60.1 243.4 70.1C251.8 78.8 255.1 80 243.6 90.8C227.6 105.9 212.3 121.6 196.6 137C187.6 145.9 176 145.9 167 137C162.7 132.7 158.5 128.3 153.9 123.7Z" fill="url(#paint0_linear_524_810)"/>
<path d="M181.8 152.2C174.1 159.5 166.8 167.2 158.7 174C151.8 179.8 141.9 179 135.4 172.7C116.9 154.7 98.5 136.6 80.4 118.3C78.9 116.8 78 112.6 78.9 111.4C85.9 103.2 93.6 95.2 105.7 97.3C110.2 98.1 115.1 100.3 118.4 103.3C132.8 116.6 146.6 130.5 160.6 144.1C166.3 149.7 173.3 151.7 181.3 150.9C181.4 151.4 181.6 151.8 181.8 152.2Z" fill="url(#paint1_linear_524_810)"/>
<g clip-path="url(#clip0_524_810)">
<path d="M35.5 129.7C23.7 129.4 11.9 129.1 0.1 128.8C0 123.8 0 118.8 0 113.8C14.1 114.1 28.2 114.4 42.4 114.7C45.4 114.7 46.4 116 46.4 118.9C46.5 130.1 46.5 130.1 35.5 129.7ZM116.9 200C115.6 200.1 113.5 201.9 113.5 203C113.2 217.1 113.3 231.2 113.3 245.4C118.9 245.4 123.8 245.4 129.1 245.4C129.1 230.1 129.1 215.3 129.1 199.9C124.8 199.9 120.8 199.6 116.9 200ZM157.6 58.4C163.5 43.9 169.2 29.9 175.1 15.4C170.2 13.5 165.8 11.8 160.4 9.7C154.9 23.5 149.4 36.8 144.1 50.2C143.8 51.1 144.8 53.2 145.7 53.6C149.4 55.4 153.3 56.7 157.6 58.4ZM83 10.1C86.8 24.4 90.4 37.8 94.2 51.2C94.5 52.5 96.6 54.4 97.5 54.2C101.6 53.4 105.6 51.9 110 50.6C106 35.5 102 20.9 98 6C92.7 7.4 88 8.7 83 10.1ZM69.9 180.5C60.4 193 51.2 205 41.9 217.1C46.1 220.2 49.9 223 54.1 226.1C63.7 213.6 73 201.6 82.4 189.3C78.1 186.2 74.3 183.6 69.9 180.5ZM75.3 237.2C79.5 238.6 83 239.6 86.4 241C89.4 242.2 90.4 241.1 91.3 238.3C95.7 225.2 100.2 212.1 104.9 198.4C100.1 196.8 95.5 195.3 90.3 193.6C85.3 208.3 80.3 222.7 75.3 237.2ZM67.1 72.4C54.6 62.6 42.6 53.2 30.5 43.7C27.2 47.7 24.2 51.4 20.9 55.5C33.2 65.2 45.2 74.6 57.6 84.3C60.8 80.3 63.8 76.5 67.1 72.4ZM120.3 27.6C120 31.4 119.6 35 119.4 38.7C119.3 42.3 119.4 45.9 119.4 50.1C124.2 50.1 129 50.1 134.3 50.1C134.6 46.8 135.1 43.2 135.3 39.6C135.9 26.2 134.8 25.4 120.3 27.6ZM207.4 37.3C203.4 33.9 199.6 30.8 195.4 27.3C190.3 33.3 185.5 39.1 180.3 45C184.5 48.5 188.3 51.6 192.3 54.9C197.5 48.9 202.3 43.2 207.4 37.3ZM46.8 138.8C39.2 141 31.8 143.2 24.3 145.4C26 150.6 27.3 155 28.9 159.9C36.4 157.7 43.7 155.6 51.1 153.3C49.6 148.2 48.2 143.6 46.8 138.8ZM27.3 95.4C27 96.6 28 98.9 29 99.3C34.3 101.5 39.7 103.5 45.2 105.3C46.1 105.6 48.2 104.8 48.6 103.9C50.3 100.2 51.5 96.3 53.1 92.1C49 90.5 45.4 89.1 41.8 87.7C31.1 83.7 30.1 84.1 27.3 95.4ZM61.3 175.6C62.1 175 62.7 172.8 62.3 172.1C60.1 168.5 57.5 165.1 55 161.5C48.4 166.1 42.3 170.2 36 174.6C39 178.9 41.7 182.6 44.7 186.8C50.6 182.8 56 179.3 61.3 175.6ZM175 209C179.8 215.3 184.2 221 188.8 227.1C193 224.1 196.8 221.3 201.2 218.2C196.3 211.7 191.9 205.8 187.3 199.8C183 203 179.1 205.9 175 209ZM71.3 40.4C72.1 39.7 73 37.6 72.6 36.9C68.9 31.1 64.9 25.5 60.9 19.5C56.5 22.4 52.5 25.1 48.2 28C52.5 34.5 56.5 40.5 60.8 46.9C64.8 44.5 68.2 42.6 71.3 40.4ZM160.1 216.1C155 217.8 150.5 219.3 145.6 220.9C148 228.3 150.3 235.3 152.7 242.6C156.9 241.2 160.8 240.2 164.4 238.7C165.5 238.3 166.8 236.1 166.5 235.2C164.6 228.9 162.4 222.8 160.1 216.1Z" fill="url(#paint2_linear_524_810)"/>
</g>
<path d="M234.5 151.2C235.8 159.8 241.9 164.5 250.6 163.5C255.1 163 259.6 161.4 263.8 159.5C266.3 158.4 267.9 158 270 159.8C272.6 162 275.5 164 278.3 166.1C264.3 183.2 236.1 183.6 222.3 167.1C213.5 156.6 214.2 138.8 224.2 126.5C234.5 113.7 247.8 108.4 264 111.9C279.7 115.2 290.2 130.8 284.5 148.9C284.1 150 281.5 151.1 279.9 151.1C266.7 151.3 253.6 151.2 240.4 151.2C238.5 151.2 236.7 151.2 234.5 151.2ZM237.3 138.2C247.8 138.2 257.8 138.2 267.8 138.2C268.1 131.7 264.8 127.9 258.8 126.9C248.7 125.3 239.4 130 237.3 138.2Z" fill="white"/>
<path d="M501.6 113C499.5 117.1 497.8 120.4 496 123.7C484.3 145.2 472.9 166.8 460.8 188C455 198.2 446.4 205.7 434 206.6C428.9 207 423.7 205.9 417.5 205.4C420.4 199.8 422.3 195.6 424.7 191.6C425.2 190.8 427.2 190.1 428.3 190.4C439.2 192.7 445 185.8 448.9 178.4C449.6 177 449.1 174.8 448.8 173.1C444.7 154.6 440.6 136.1 436.2 117.6C435.3 113.8 436.3 112.7 439.9 112.9C441.6 113 443.2 113 444.9 112.9C454.2 112.9 454.1 112.9 455.8 122.2C457.5 131.8 459.4 141.3 462.4 151.2C463.3 150 464.3 148.8 465 147.5C470.6 137.3 476.2 127.1 481.6 116.7C483.2 113.5 485.2 112.5 488.7 112.7C492.4 113.2 496.5 113 501.6 113Z" fill="white"/>
<path d="M438.1 84.3C435.6 89.8 434.2 94.1 431.7 97.8C430.7 99.3 427.5 99.7 425.3 99.8C417.6 100.2 413.1 104.8 413.5 113C418.2 113 423 113 428.3 113C427.5 117.7 427.1 122 426 126.1C425.8 127.1 423.5 127.9 422.1 128.1C418.1 128.7 412.8 127.5 410.3 129.7C407.9 131.8 408.3 137.1 407.6 141C405.6 152.5 403.6 163.9 401.7 175.4C401.2 178.1 400.2 179.5 397.2 179.4C392.9 179.2 388.6 179.3 383.5 179.3C386.6 162 389.5 145.4 392.5 128.6C389.6 128.4 387.3 128.2 384.3 127.9C385 123.5 385.3 119.2 386.4 115.1C386.7 114.1 389.3 113 390.7 113.1C394.4 113.5 395.5 111.8 396.3 108.5C399.8 93.8 408.5 85.6 422.8 83.8C427.5 83.1 432.3 84 438.1 84.3Z" fill="white"/>
<path d="M289.9 179.3C292.6 164 295.1 149.7 297.6 135.3C298.5 129.9 299.4 124.5 300.2 119.1C300.8 115 302.4 112.2 307.3 113C308.1 113.1 309 113 309.8 113C316.9 113 316.9 113 317.9 120.7C325.6 114.2 334 111.3 344.4 113.4C342.4 118.3 340.7 123.1 338.5 127.7C338.1 128.6 336.1 129.1 334.7 129.2C321.9 130.6 315.2 136.4 312.6 149.1C310.8 157.9 309.2 166.7 307.8 175.6C307.4 178.4 306.2 179.3 303.6 179.3C299.3 179.2 294.9 179.3 289.9 179.3Z" fill="white"/>
<path d="M344.5 179.3C348.4 157.5 352.1 136.6 356 115.8C356.2 114.7 358 113.3 359.2 113.2C363.6 112.9 368.1 113.1 373.5 113.1C372.7 118 372.1 122.5 371.3 127C368.5 143 365.5 159 362.7 175C362.1 178.3 360.9 179.6 357.6 179.4C353.5 179.1 349.4 179.3 344.5 179.3Z" fill="white"/>
<path d="M366.2 107.8C361.4 107.8 358 104.6 357.9 99.9C357.7 94.2 363.4 88.7 369.5 88.7C374.2 88.7 378 92.2 377.9 96.5C377.9 102.1 372 107.8 366.2 107.8Z" fill="white"/>
<defs>
<linearGradient id="paint0_linear_524_810" x1="154" y1="123" x2="238.546" y2="47.9674" gradientUnits="userSpaceOnUse">
<stop stop-color="#31A74A"/>
<stop offset="0.753125" stop-color="#8AC24A"/>
</linearGradient>
<linearGradient id="paint1_linear_524_810" x1="182" y1="153" x2="69.9602" y2="139.798" gradientUnits="userSpaceOnUse">
<stop stop-color="#31A74A"/>
<stop offset="0.711458" stop-color="#8AC24A"/>
</linearGradient>
<linearGradient id="paint2_linear_524_810" x1="193" y1="25" x2="1.281" y2="171.129" gradientUnits="userSpaceOnUse">
<stop stop-color="#31A74A"/>
<stop offset="1" stop-color="#8AC24A"/>
</linearGradient>
<clipPath id="clip0_524_810">
<rect width="207.4" height="239.4" fill="white" transform="translate(0 6)"/>
</clipPath>
</defs>
</svg>
