<svg width="502" height="240" viewBox="0 0 502 240" fill="none" xmlns="http://www.w3.org/2000/svg">
<path d="M153.9 117.7C172.5 99.5 190.8 81.6 209 63.7C219.6 53.3 233.8 54.1 243.4 64.1C251.8 72.8 255.1 74 243.6 84.8C227.6 99.9 212.3 115.6 196.6 131C187.6 139.9 176 139.9 167 131C162.7 126.7 158.5 122.3 153.9 117.7Z" fill="url(#paint0_linear_524_881)"/>
<path d="M181.8 146.2C174.1 153.5 166.8 161.2 158.7 168C151.8 173.8 141.9 173 135.4 166.7C116.9 148.7 98.5 130.6 80.4 112.3C78.9 110.8 78 106.6 78.9 105.4C85.9 97.2 93.6 89.2 105.7 91.3C110.2 92.1 115.1 94.3 118.4 97.3C132.8 110.6 146.6 124.5 160.6 138.1C166.3 143.7 173.3 145.7 181.3 144.9C181.4 145.4 181.6 145.8 181.8 146.2Z" fill="url(#paint1_linear_524_881)"/>
<g clip-path="url(#clip0_524_881)">
<path d="M35.5 123.7C23.7 123.4 11.9 123.1 0.1 122.8C0 117.8 0 112.8 0 107.8C14.1 108.1 28.2 108.4 42.4 108.7C45.4 108.7 46.4 110 46.4 112.9C46.5 124.1 46.5 124.1 35.5 123.7ZM116.9 194C115.6 194.1 113.5 195.9 113.5 197C113.2 211.1 113.3 225.2 113.3 239.4C118.9 239.4 123.8 239.4 129.1 239.4C129.1 224.1 129.1 209.3 129.1 193.9C124.8 193.9 120.8 193.6 116.9 194ZM157.6 52.4C163.5 37.9 169.2 23.9 175.1 9.4C170.2 7.5 165.8 5.8 160.4 3.7C154.9 17.5 149.4 30.8 144.1 44.2C143.8 45.1 144.8 47.2 145.7 47.6C149.4 49.4 153.3 50.7 157.6 52.4ZM83 4.1C86.8 18.4 90.4 31.8 94.2 45.2C94.5 46.5 96.6 48.4 97.5 48.2C101.6 47.4 105.6 45.9 110 44.6C106 29.5 102 14.9 98 0C92.7 1.4 88 2.7 83 4.1ZM69.9 174.5C60.4 187 51.2 199 41.9 211.1C46.1 214.2 49.9 217 54.1 220.1C63.7 207.6 73 195.6 82.4 183.3C78.1 180.2 74.3 177.6 69.9 174.5ZM75.3 231.2C79.5 232.6 83 233.6 86.4 235C89.4 236.2 90.4 235.1 91.3 232.3C95.7 219.2 100.2 206.1 104.9 192.4C100.1 190.8 95.5 189.3 90.3 187.6C85.3 202.3 80.3 216.7 75.3 231.2ZM67.1 66.4C54.6 56.6 42.6 47.2 30.5 37.7C27.2 41.7 24.2 45.4 20.9 49.5C33.2 59.2 45.2 68.6 57.6 78.3C60.8 74.3 63.8 70.5 67.1 66.4ZM120.3 21.6C120 25.4 119.6 29 119.4 32.7C119.3 36.3 119.4 39.9 119.4 44.1C124.2 44.1 129 44.1 134.3 44.1C134.6 40.8 135.1 37.2 135.3 33.6C135.9 20.2 134.8 19.4 120.3 21.6ZM207.4 31.3C203.4 27.9 199.6 24.8 195.4 21.3C190.3 27.3 185.5 33.1 180.3 39C184.5 42.5 188.3 45.6 192.3 48.9C197.5 42.9 202.3 37.2 207.4 31.3ZM46.8 132.8C39.2 135 31.8 137.2 24.3 139.4C26 144.6 27.3 149 28.9 153.9C36.4 151.7 43.7 149.6 51.1 147.3C49.6 142.2 48.2 137.6 46.8 132.8ZM27.3 89.4C27 90.6 28 92.9 29 93.3C34.3 95.5 39.7 97.5 45.2 99.3C46.1 99.6 48.2 98.8 48.6 97.9C50.3 94.2 51.5 90.3 53.1 86.1C49 84.5 45.4 83.1 41.8 81.7C31.1 77.7 30.1 78.1 27.3 89.4ZM61.3 169.6C62.1 169 62.7 166.8 62.3 166.1C60.1 162.5 57.5 159.1 55 155.5C48.4 160.1 42.3 164.2 36 168.6C39 172.9 41.7 176.6 44.7 180.8C50.6 176.8 56 173.3 61.3 169.6ZM175 203C179.8 209.3 184.2 215 188.8 221.1C193 218.1 196.8 215.3 201.2 212.2C196.3 205.7 191.9 199.8 187.3 193.8C183 197 179.1 199.9 175 203ZM71.3 34.4C72.1 33.7 73 31.6 72.6 30.9C68.9 25.1 64.9 19.5 60.9 13.5C56.5 16.4 52.5 19.1 48.2 22C52.5 28.5 56.5 34.5 60.8 40.9C64.8 38.5 68.2 36.6 71.3 34.4ZM160.1 210.1C155 211.8 150.5 213.3 145.6 214.9C148 222.3 150.3 229.3 152.7 236.6C156.9 235.2 160.8 234.2 164.4 232.7C165.5 232.3 166.8 230.1 166.5 229.2C164.6 222.9 162.4 216.8 160.1 210.1Z" fill="url(#paint2_linear_524_881)"/>
</g>
<path d="M234.5 145.2C235.8 153.8 241.9 158.5 250.6 157.5C255.1 157 259.6 155.4 263.8 153.5C266.3 152.4 267.9 152 270 153.8C272.6 156 275.5 158 278.3 160.1C264.3 177.2 236.1 177.6 222.3 161.1C213.5 150.6 214.2 132.8 224.2 120.5C234.5 107.7 247.8 102.4 264 105.9C279.7 109.2 290.2 124.8 284.5 142.9C284.1 144 281.5 145.1 279.9 145.1C266.7 145.3 253.6 145.2 240.4 145.2C238.5 145.2 236.7 145.2 234.5 145.2ZM237.3 132.2C247.8 132.2 257.8 132.2 267.8 132.2C268.1 125.7 264.8 121.9 258.8 120.9C248.7 119.3 239.4 124 237.3 132.2Z" fill="#234D77"/>
<path d="M501.6 107C499.5 111.1 497.8 114.4 496 117.7C484.3 139.2 472.9 160.8 460.8 182C455 192.2 446.4 199.7 434 200.6C428.9 201 423.7 199.9 417.5 199.4C420.4 193.8 422.3 189.6 424.7 185.6C425.2 184.8 427.2 184.1 428.3 184.4C439.2 186.7 445 179.8 448.9 172.4C449.6 171 449.1 168.8 448.8 167.1C444.7 148.6 440.6 130.1 436.2 111.6C435.3 107.8 436.3 106.7 439.9 106.9C441.6 107 443.2 107 444.9 106.9C454.2 106.9 454.1 106.9 455.8 116.2C457.5 125.8 459.4 135.3 462.4 145.2C463.3 144 464.3 142.8 465 141.5C470.6 131.3 476.2 121.1 481.6 110.7C483.2 107.5 485.2 106.5 488.7 106.7C492.4 107.2 496.5 107 501.6 107Z" fill="#234D77"/>
<path d="M438.1 78.3C435.6 83.8 434.2 88.1 431.7 91.8C430.7 93.3 427.5 93.7 425.3 93.8C417.6 94.2 413.1 98.8 413.5 107C418.2 107 423 107 428.3 107C427.5 111.7 427.1 116 426 120.1C425.8 121.1 423.5 121.9 422.1 122.1C418.1 122.7 412.8 121.5 410.3 123.7C407.9 125.8 408.3 131.1 407.6 135C405.6 146.5 403.6 157.9 401.7 169.4C401.2 172.1 400.2 173.5 397.2 173.4C392.9 173.2 388.6 173.3 383.5 173.3C386.6 156 389.5 139.4 392.5 122.6C389.6 122.4 387.3 122.2 384.3 121.9C385 117.5 385.3 113.2 386.4 109.1C386.7 108.1 389.3 107 390.7 107.1C394.4 107.5 395.5 105.8 396.3 102.5C399.8 87.8 408.5 79.6 422.8 77.8C427.5 77.1 432.3 78 438.1 78.3Z" fill="#234D77"/>
<path d="M289.9 173.3C292.6 158 295.1 143.7 297.6 129.3C298.5 123.9 299.4 118.5 300.2 113.1C300.8 109 302.4 106.2 307.3 107C308.1 107.1 309 107 309.8 107C316.9 107 316.9 107 317.9 114.7C325.6 108.2 334 105.3 344.4 107.4C342.4 112.3 340.7 117.1 338.5 121.7C338.1 122.6 336.1 123.1 334.7 123.2C321.9 124.6 315.2 130.4 312.6 143.1C310.8 151.9 309.2 160.7 307.8 169.6C307.4 172.4 306.2 173.3 303.6 173.3C299.3 173.2 294.9 173.3 289.9 173.3Z" fill="#234D77"/>
<path d="M344.5 173.3C348.4 151.5 352.1 130.6 356 109.8C356.2 108.7 358 107.3 359.2 107.2C363.6 106.9 368.1 107.1 373.5 107.1C372.7 112 372.1 116.5 371.3 121C368.5 137 365.5 153 362.7 169C362.1 172.3 360.9 173.6 357.6 173.4C353.5 173.1 349.4 173.3 344.5 173.3Z" fill="#234D77"/>
<path d="M366.2 101.8C361.4 101.8 358 98.6 357.9 93.9C357.7 88.2 363.4 82.7 369.5 82.7C374.2 82.7 378 86.2 377.9 90.5C377.9 96.1 372 101.8 366.2 101.8Z" fill="#234D77"/>
<defs>
<linearGradient id="paint0_linear_524_881" x1="154" y1="117" x2="238.546" y2="41.9674" gradientUnits="userSpaceOnUse">
<stop stop-color="#31A74A"/>
<stop offset="0.753125" stop-color="#8AC24A"/>
</linearGradient>
<linearGradient id="paint1_linear_524_881" x1="182" y1="147" x2="69.9602" y2="133.798" gradientUnits="userSpaceOnUse">
<stop stop-color="#31A74A"/>
<stop offset="0.711458" stop-color="#8AC24A"/>
</linearGradient>
<linearGradient id="paint2_linear_524_881" x1="193" y1="19" x2="1.281" y2="165.129" gradientUnits="userSpaceOnUse">
<stop stop-color="#31A74A"/>
<stop offset="1" stop-color="#8AC24A"/>
</linearGradient>
<clipPath id="clip0_524_881">
<rect width="207.4" height="239.4" fill="white"/>
</clipPath>
</defs>
</svg>
